<mxfile host="app.diagrams.net" modified="2021-10-30T14:00:38.573Z" agent="5.0 (Windows NT 10.0; Win64; x64) AppleWebKit/537.36 (KHTML, like Gecko) Chrome/95.0.4638.69 Safari/537.36" etag="uQKEIfABdWIu-T8kASCH" version="15.6.2" type="github">
  <diagram id="f7n9ftbdGJuH2m6sp_ra" name="Page-1">
    <mxGraphModel dx="650" dy="363" grid="1" gridSize="10" guides="1" tooltips="1" connect="1" arrows="1" fold="1" page="1" pageScale="1" pageWidth="827" pageHeight="1169" math="0" shadow="0">
      <root>
        <mxCell id="0" />
        <mxCell id="1" parent="0" />
        <mxCell id="GtqczFh4ZZVxKXnOIKG0-1" value="硬件" style="html=1;shadow=0;dashed=0;align=center;verticalAlign=middle;shape=mxgraph.arrows2.arrow;dy=0;dx=30;notch=23.1;fillColor=#fff2cc;strokeColor=#d6b656;" vertex="1" parent="1">
          <mxGeometry x="130" y="70" width="100" height="60" as="geometry" />
        </mxCell>
        <mxCell id="GtqczFh4ZZVxKXnOIKG0-2" value="" style="html=1;shadow=0;dashed=0;align=center;verticalAlign=middle;shape=mxgraph.arrows2.arrow;dy=0;dx=30;notch=30;fillColor=#fff2cc;strokeColor=#d6b656;" vertex="1" parent="1">
          <mxGeometry x="210" y="70" width="470" height="60" as="geometry" />
        </mxCell>
        <mxCell id="GtqczFh4ZZVxKXnOIKG0-3" value="图像识别模块" style="rounded=1;whiteSpace=wrap;html=1;absoluteArcSize=1;arcSize=14;strokeWidth=2;" vertex="1" parent="1">
          <mxGeometry x="250" y="80" width="80" height="40" as="geometry" />
        </mxCell>
        <mxCell id="GtqczFh4ZZVxKXnOIKG0-4" value="图像处理&lt;span style=&quot;color: rgba(0 , 0 , 0 , 0) ; font-family: monospace ; font-size: 0px&quot;&gt;%3CmxGraphModel%3E%3Croot%3E%3CmxCell%20id%3D%220%22%2F%3E%3CmxCell%20id%3D%221%22%20parent%3D%220%22%2F%3E%3CmxCell%20id%3D%222%22%20value%3D%22%E5%9B%BE%E5%83%8F%E8%AF%86%E5%88%AB%E6%A8%A1%E5%9D%97%22%20style%3D%22rounded%3D1%3BwhiteSpace%3Dwrap%3Bhtml%3D1%3BabsoluteArcSize%3D1%3BarcSize%3D14%3BstrokeWidth%3D2%3B%22%20vertex%3D%221%22%20parent%3D%221%22%3E%3CmxGeometry%20x%3D%22250%22%20y%3D%2280%22%20width%3D%2280%22%20height%3D%2240%22%20as%3D%22geometry%22%2F%3E%3C%2FmxCell%3E%3C%2Froot%3E%3C%2FmxGraphModel%3E&lt;/span&gt;模块" style="rounded=1;whiteSpace=wrap;html=1;absoluteArcSize=1;arcSize=14;strokeWidth=2;" vertex="1" parent="1">
          <mxGeometry x="340" y="80" width="80" height="40" as="geometry" />
        </mxCell>
        <mxCell id="GtqczFh4ZZVxKXnOIKG0-5" value="在线传输转发" style="rounded=1;whiteSpace=wrap;html=1;absoluteArcSize=1;arcSize=14;strokeWidth=2;" vertex="1" parent="1">
          <mxGeometry x="430" y="80" width="80" height="40" as="geometry" />
        </mxCell>
        <mxCell id="GtqczFh4ZZVxKXnOIKG0-6" value="客户端识别" style="rounded=1;whiteSpace=wrap;html=1;absoluteArcSize=1;arcSize=14;strokeWidth=2;" vertex="1" parent="1">
          <mxGeometry x="520" y="80" width="80" height="40" as="geometry" />
        </mxCell>
        <mxCell id="GtqczFh4ZZVxKXnOIKG0-7" value="机器学习" style="html=1;shadow=0;dashed=0;align=center;verticalAlign=middle;shape=mxgraph.arrows2.arrow;dy=0;dx=30;notch=22.76;fillColor=#d5e8d4;strokeColor=#82b366;" vertex="1" parent="1">
          <mxGeometry x="130" y="140" width="100" height="60" as="geometry" />
        </mxCell>
        <mxCell id="GtqczFh4ZZVxKXnOIKG0-8" value="" style="html=1;shadow=0;dashed=0;align=center;verticalAlign=middle;shape=mxgraph.arrows2.arrow;dy=0;dx=30;notch=30;fillColor=#d5e8d4;strokeColor=#82b366;" vertex="1" parent="1">
          <mxGeometry x="210" y="140" width="470" height="60" as="geometry" />
        </mxCell>
        <mxCell id="GtqczFh4ZZVxKXnOIKG0-9" value="数据采集" style="rounded=1;whiteSpace=wrap;html=1;absoluteArcSize=1;arcSize=14;strokeWidth=2;" vertex="1" parent="1">
          <mxGeometry x="250" y="150" width="80" height="40" as="geometry" />
        </mxCell>
        <mxCell id="GtqczFh4ZZVxKXnOIKG0-10" value="模型处理" style="rounded=1;whiteSpace=wrap;html=1;absoluteArcSize=1;arcSize=14;strokeWidth=2;" vertex="1" parent="1">
          <mxGeometry x="373.5" y="150" width="80" height="40" as="geometry" />
        </mxCell>
        <mxCell id="GtqczFh4ZZVxKXnOIKG0-11" value="图像识别" style="rounded=1;whiteSpace=wrap;html=1;absoluteArcSize=1;arcSize=14;strokeWidth=2;" vertex="1" parent="1">
          <mxGeometry x="490" y="150" width="80" height="40" as="geometry" />
        </mxCell>
        <mxCell id="GtqczFh4ZZVxKXnOIKG0-13" value="客户端" style="html=1;shadow=0;dashed=0;align=center;verticalAlign=middle;shape=mxgraph.arrows2.arrow;dy=0;dx=30;notch=22.76;fillColor=#dae8fc;strokeColor=#6c8ebf;" vertex="1" parent="1">
          <mxGeometry x="130" y="210" width="100" height="60" as="geometry" />
        </mxCell>
        <mxCell id="GtqczFh4ZZVxKXnOIKG0-14" value="" style="html=1;shadow=0;dashed=0;align=center;verticalAlign=middle;shape=mxgraph.arrows2.arrow;dy=0;dx=30;notch=30;fillColor=#dae8fc;strokeColor=#6c8ebf;" vertex="1" parent="1">
          <mxGeometry x="210" y="210" width="470" height="60" as="geometry" />
        </mxCell>
        <mxCell id="GtqczFh4ZZVxKXnOIKG0-15" value="拍照采集" style="rounded=1;whiteSpace=wrap;html=1;absoluteArcSize=1;arcSize=14;strokeWidth=2;" vertex="1" parent="1">
          <mxGeometry x="250" y="220" width="80" height="40" as="geometry" />
        </mxCell>
        <mxCell id="GtqczFh4ZZVxKXnOIKG0-16" value="历史记录" style="rounded=1;whiteSpace=wrap;html=1;absoluteArcSize=1;arcSize=14;strokeWidth=2;" vertex="1" parent="1">
          <mxGeometry x="340" y="220" width="80" height="40" as="geometry" />
        </mxCell>
        <mxCell id="GtqczFh4ZZVxKXnOIKG0-17" value="在线查询" style="rounded=1;whiteSpace=wrap;html=1;absoluteArcSize=1;arcSize=14;strokeWidth=2;" vertex="1" parent="1">
          <mxGeometry x="430" y="220" width="80" height="40" as="geometry" />
        </mxCell>
        <mxCell id="GtqczFh4ZZVxKXnOIKG0-18" value="分类提示" style="rounded=1;whiteSpace=wrap;html=1;absoluteArcSize=1;arcSize=14;strokeWidth=2;" vertex="1" parent="1">
          <mxGeometry x="520" y="220" width="80" height="40" as="geometry" />
        </mxCell>
        <mxCell id="GtqczFh4ZZVxKXnOIKG0-19" value="数据" style="html=1;shadow=0;dashed=0;align=center;verticalAlign=middle;shape=mxgraph.arrows2.arrow;dy=0;dx=30;notch=22.76;fillColor=#f8cecc;strokeColor=#b85450;" vertex="1" parent="1">
          <mxGeometry x="130" y="280" width="100" height="60" as="geometry" />
        </mxCell>
        <mxCell id="GtqczFh4ZZVxKXnOIKG0-20" value="" style="html=1;shadow=0;dashed=0;align=center;verticalAlign=middle;shape=mxgraph.arrows2.arrow;dy=0;dx=30;notch=30;fillColor=#f8cecc;strokeColor=#b85450;" vertex="1" parent="1">
          <mxGeometry x="210" y="280" width="470" height="60" as="geometry" />
        </mxCell>
        <mxCell id="GtqczFh4ZZVxKXnOIKG0-21" value="用户数据收集" style="rounded=1;whiteSpace=wrap;html=1;absoluteArcSize=1;arcSize=14;strokeWidth=2;" vertex="1" parent="1">
          <mxGeometry x="250" y="290" width="80" height="40" as="geometry" />
        </mxCell>
        <mxCell id="GtqczFh4ZZVxKXnOIKG0-22" value="数据归类" style="rounded=1;whiteSpace=wrap;html=1;absoluteArcSize=1;arcSize=14;strokeWidth=2;" vertex="1" parent="1">
          <mxGeometry x="373.5" y="290" width="80" height="40" as="geometry" />
        </mxCell>
        <mxCell id="GtqczFh4ZZVxKXnOIKG0-23" value="学习库同步" style="rounded=1;whiteSpace=wrap;html=1;absoluteArcSize=1;arcSize=14;strokeWidth=2;" vertex="1" parent="1">
          <mxGeometry x="500" y="290" width="80" height="40" as="geometry" />
        </mxCell>
      </root>
    </mxGraphModel>
  </diagram>
</mxfile>
